<?xml version="1.0" encoding="utf-8"?>
<!-- Generator: Adobe Illustrator 22.0.1, SVG Export Plug-In . SVG Version: 6.00 Build 0)  -->
<svg version="1.1" id="Layer_1" xmlns="http://www.w3.org/2000/svg" xmlns:xlink="http://www.w3.org/1999/xlink" x="0px" y="0px"
	 viewBox="0 0 650 77.8" enable-background="new 0 0 650 77.8" xml:space="preserve">
<g>
	<path fill="#FAFAF6" d="M0.6,54.2c2.4-7.9,12-27.2,20.3-40.1c-1.4,0.2-2.8,0.4-4.1,0.4c-6.2,0-10.3-2.2-11.3-5.9
		C5.2,7.3,6,6.8,7.3,6.8c8.3,0,23.5-2.6,29-2.6c4.4,0,8.4,1.1,9.8,5.1c0.5,1.1,0.1,2.3-2.1,2.1c-4.1-0.5-9.6,0.4-14.7,1.2
		c0.1,3.4-2.7,8.9-6.7,16.1c-4.9,8.9-11.8,21.6-17.3,34c-0.8,1.7-1.9,1.8-3.2,0.5c-1.4-1.3-2-2.9-2-5.2C0,56.8,0.2,55.4,0.6,54.2z"
		/>
	<path fill="#FAFAF6" d="M50.6,64.3c-6.3,0-9.1-3.1-9.1-8.1c0-6,4.7-14.3,8.3-19.9c1.8-3.1,3.2-5.4,2.6-5.4c-0.9,0-9.9,6-14.9,14.2
		c-3.2,5.3-6.7,11.9-8.9,17.6c-0.8,1.7-2.2,2-3.3,0.6c-1.5-1.8-2.9-4.1-0.5-10.4C28.5,43,47.3,11.1,55,1.2c1.5-1.9,2.9-1.5,3.8,0.4
		c0.5,1,0.8,2.3,0.8,3.6c0,2.6-1.1,6.1-3.4,10.1c-1.9,3.1-7.8,12-8.7,13.3c2.9-2.1,6.2-3.2,8-3.2c2.8,0,5.5,2.9,5.5,6.7
		c0,1.3-0.3,2.7-1,4c-5.2,9.3-7.6,13.3-8.6,15.6c-0.9,2.1-1.2,4.1-1.2,5.6c0,2,0.5,3.2,1.8,3.2c3.3,0,8.4-6.7,11.2-12.5
		c0.7-1.4,2.2-1.6,2.9,0c0.5,1.1,1.1,3.3-0.3,6.2C62.9,59.6,56.7,64.3,50.6,64.3z"/>
	<path fill="#FAFAF6" d="M79,49.9c-2.3,0-4.6-0.7-6.7-2.1c-0.6,1.9-0.9,3.9-0.9,5.6c0,4.2,1.7,7.1,4.6,7.1c7.2,0,13.6-7,17.5-12.9
		c1-1.5,2.3-1.7,3,0.2c0.3,0.9,0.4,3.6-1.3,6.2c-4,5.8-11.6,10.3-19,10.4c-8.8,0.1-13.7-5.7-13.7-13.3c0-3.4,1-7.1,2.9-10.9
		C70.4,30,78.1,25,83.6,25c1.3,0,2.4,0.2,3.3,0.8c2.7,1.5,4.6,3,5.9,4.9c0.6,0.9,0.9,2.3,0.9,3.5C93.8,39.9,87.4,49.9,79,49.9z
		 M73.6,44.2c0.8,0.5,1.4,0.7,2.1,0.7c2.3,0,5.3-2.9,7.2-5.4c2.8-3.7,4.8-8.2,3.7-9C85.2,29.3,78.2,35.1,73.6,44.2z"/>
	<path fill="#FAFAF6" d="M153.6,43c0.5,1,0.7,2.2,0.7,3.1c0,5.5-5.1,11-8.6,13.6c-3.9,2.8-8.2,3.9-12.3,3.9c-3.1,0-6-0.7-8.4-2
		c-4.5-2.4-8.4-8.4-8.5-16.1c-0.4-19.2,16.6-36.4,27.4-41.2c2.5-1,5.1-1.6,7.5-1.6s4.6,0.7,6.2,2c3.2,2.9,5.7,6.6,5.7,10.3
		c0,1.7-0.4,3.6-1.3,5.5c-1.6,3.2-2.9,6.5-3.6,8.6c-0.5,1.6-1.8,2.6-3.7,1.4c-1.9-1.2-3.2-3.3-3.2-6.1c0-1.1,0.2-2.3,0.6-3.5
		c0.4-1.4,1-2.9,1.6-4.4c1.3-3.3,2.5-6.4,1.3-7.6c-2.3-2.5-15.8,5.8-23.7,18.5c-4.2,6.7-6,14.5-6,20.2c0,8.2,3.6,11.8,7,11.8
		c5.2,0,12-6.1,17.5-16.6C150.5,41.4,152.7,40.9,153.6,43z"/>
	<path fill="#FAFAF6" d="M233.5,54.2c-2.8,5.5-9.5,10.3-15.4,10.3c-5.4,0-8.2-2.9-8.7-6.9c-3.1,3.4-7.5,6.6-12.3,6.6
		c-4.9,0-6.7-3.6-6.7-7.7c0-2,0.4-4.3,1.1-6.6c0.7-1.9,1.6-4.3,2.8-6.5c-1.9,0.7-3.8,1-5.8,1C185.9,53.5,178,64,170.1,64
		c-3.1,0-6.7-1.2-9.4-4.8c-1.8-2.4-2.6-5.3-2.6-8.4c0-4,1.4-8.9,3.9-13.2c3.5-6.1,9.8-11.8,15.7-12.3c3.2-0.2,5.1,0.8,7.2,3.5
		c0.5,0.6,1,1,1.4,1.4c1.9,2,3.4,4.5,3,10.3c4.3-0.8,8.6-4.9,11.6-9.2l3.5-5.1c1.1-1.7,2.4-1.8,3.7-0.3c1.1,1.3,1.7,3.2,1.7,4.6
		c0,2.3-1.1,5.1-3.1,8.6c-3.2,5.2-5.3,9-7.2,13.5c-0.7,1.8-1,3.5-1,4.9c0,1.3,0.3,2.3,1.1,2.3c2.7,0,7.5-6,12.4-13.9
		c5.8-9.1,7.8-14.8,11.3-19.9c1.1-1.7,2.7-2,3.9-0.6c1,1.1,1.6,2.8,1.6,4.9c0,1.8-0.4,3.8-1.5,6.1c-1.8,3.9-6.4,10.2-8.6,15.7
		c-1,2-1.5,4-1.5,5.6c0,1.7,0.6,2.7,1.8,2.7c3.2,0,8.8-6.2,12.3-12.5c0.9-1.8,2.2-1.9,3.2-0.1C234.9,48.8,234.9,51.4,233.5,54.2z
		 M167.5,59.1c2.4,0,6.5-3.4,10.1-9.9c1.5-2.7,2.4-4.8,3.1-7c-2.5-1.6-4.9-4.9-5.8-7.6c-2,1.9-3.7,4.3-5.5,7.3
		c-2.5,4.5-3.9,9.7-3.9,13.2C165.5,57.8,166,59.1,167.5,59.1z M183.5,33.3c0-1.4-0.8-2-1.4-2c-0.6,0-1.4,0.8-1.4,2.3
		c0,1.7,0.5,4.2,1.5,5.4C183.2,36.8,183.5,34.5,183.5,33.3z"/>
	<path fill="#FAFAF6" d="M249.4,24.6c0,1.8-0.7,4.6-1.7,7.6c2.3-0.6,4.8-1.9,7.7-4c1.6-1.1,2.6-1.3,3.8-0.1c1.3,1.3,2.8,3.8,2.8,6.1
		c0,1.1-0.5,2.5-1.5,3.7c-5.1,5.9-10.5,13.4-10.5,19c0,2.5,0.8,4,2.1,4c3.2,0,7-5.3,10-11.9c0.8-1.7,2.1-1.8,2.9-0.1
		c0.7,1.3,0.8,3.6-0.3,6.2c-2.3,5.4-7.9,9.5-13.3,9.5c-5.8,0-8.9-4.1-8.9-9.2c0-6.1,5-13.4,9.8-19.2c-2.5,1-4.8,1.4-6.9,1.5
		c-7.1,12.3-12.5,21.1-13.9,27.6c-0.4,1.7-1.6,2.6-3.3,0.8c-1.6-1.5-2.4-3.5-2.4-5.6c0-2.1,0.7-4.4,2-6.8c1.6-3,6.5-10.8,11.7-17.3
		c-1.1-1-1.8-2.3-1.8-3.5c0-4.8,6.1-11.6,9-11.6C248.5,21.3,249.4,22.4,249.4,24.6z"/>
	<path fill="#FAFAF6" d="M263.6,43.3c1.9-1.6,3.3-1.1,3.6,1.1c3.1-4.5,6.5-9.4,8.9-13.5c0.4-3.4,1.5-5.6,3.7-7.4
		c1.5-1.3,3.2-2,4.7-2c2.6,0,3.1,2.1,0.2,6.9c-0.1,1.1-0.2,2.8-0.2,4c0,6.7,1.2,12.9,1,18c-0.1,2.4-0.6,5-1.6,7.1
		c3.9-2.7,6.6-5.8,8.3-10.5c0.9-2.2,2.3-1.5,2.9,0c0.5,0.9,0.8,3.6-0.9,6.6c-3.6,6.7-10.3,10.3-17.4,10.5
		c-5.7,0.2-11.4-1.3-14.6-7.3c-1-1.8-1.6-4.1-1.6-6.3C260.6,47.9,261.5,45.1,263.6,43.3z M276.4,48.9c0-3-0.1-6.1-0.3-8.6
		c-2.3,3.6-4.9,7.7-7.8,11.8c1.1,4.5,3.1,7.8,5.2,7.8C275.6,59.9,276.4,55.1,276.4,48.9z"/>
	<path fill="#FAFAF6" d="M307.2,49.9c-2.3,0-4.6-0.7-6.7-2.1c-0.6,1.9-0.9,3.9-0.9,5.6c0,4.2,1.7,7.1,4.6,7.1
		c7.2,0,13.6-7,17.5-12.9c1-1.5,2.3-1.7,3,0.2c0.3,0.9,0.4,3.6-1.3,6.2c-4,5.8-11.6,10.3-19,10.4c-8.8,0.1-13.7-5.7-13.7-13.3
		c0-3.4,1-7.1,2.9-10.9C298.6,30,306.3,25,311.8,25c1.3,0,2.4,0.2,3.3,0.8c2.7,1.5,4.6,3,5.9,4.9c0.6,0.9,1,2.3,1,3.5
		C322,39.9,315.6,49.9,307.2,49.9z M301.8,44.2c0.8,0.5,1.4,0.7,2.1,0.7c2.3,0,5.3-2.9,7.2-5.4c2.8-3.7,4.8-8.2,3.7-9
		C313.4,29.3,306.4,35.1,301.8,44.2z"/>
	<path fill="#FAFAF6" d="M366.3,60.3c2.8,0,7.9-5.9,12.8-14.3c1.8-16.9,9.6-21.2,11.3-21.2s2.4,1.6,2,3.9c-0.6,3.5-2.2,7.7-8.2,17.8
		c-6.5,10.7-13.3,18-20,17.9c-3.8-0.1-6.2-2.8-6.8-5.9c-2.7,2.9-6.5,5.4-10.5,5.4c-4.5,0-6.5-3.2-6.5-7.4c0-2,0.3-4.3,1.2-6.7
		c2.4-5.9,7.6-16.3,13-23.8c1.1-1.5,2.7-1.7,3.6-0.4c0.8,1,1.9,3.2,1.9,4.8c0,2.3-1.1,5.1-3.3,8.6c-3.2,5.1-5.5,9.5-7.5,14
		c-0.8,2-1.1,3.8-1.1,5.2c0,1.1,0.1,1.8,0.9,1.8c2.5,0,5.6-5,9.7-11.8c4.3-7,6.2-10.7,8-14c1.7-3.2,3.4-6.2,5.1-8.4
		c1.2-1.6,2.6-1.7,3.6-0.7c2.6,2.8,2.6,6.6,0.3,11.2c-1.5,3.1-5.6,8.8-9,16.2c-1.1,2.3-1.7,4.3-1.7,5.6S365.5,60.3,366.3,60.3z"/>
	<path fill="#FAFAF6" d="M395.1,64.2c-5.8,0-8.4-3.3-8.4-8.1c0-1.8,0.4-3.8,1.1-6.3c2.4-6.7,8.5-17.7,12-22.6
		c1.4-1.9,2.6-2.1,3.8-0.7c1.8,1.9,2.6,6,0.1,10.7c-1.8,4.1-6.2,11.2-7.8,15c-0.9,2.2-1.3,4.2-1.3,5.7s0.4,2.4,1.4,2.4
		c3.8,0,8.7-6.4,11.7-12.8c0.8-1.7,2-1.5,2.8,0.2c0.9,1.6,0.8,4-0.5,6.5C407.3,60.2,400.7,64.2,395.1,64.2z M407.3,15.8
		c2.7,0,5.2,3.4,5.2,6.2c0,2.6-1.4,4.8-3.8,4.8c-3,0-5.6-2.9-5.6-5.8C403.1,18.3,405.1,15.8,407.3,15.8z"/>
	<path fill="#FAFAF6" d="M408.7,45.7c1.9-4.7,5.5-12.2,9.3-19c-2.9-0.4-4.7-1.4-5.4-2.6c-1.3-2-0.4-2.9,1.8-2.9
		c2.2,0.1,4.8,0,6.8-0.2c2.9-5.1,4.9-8.3,7.1-11.4c1.4-2.1,2.6-2,3.6-0.2c0.7,1.1,1,2.8,1,3.9c0,1.7-0.4,3.9-1.5,6.6
		c2.9,0.4,4.6,1.9,5.2,3c1,1.7,0.3,2.9-2,2.6c-1.7-0.2-4.2,0-6.3,0.3c-3.6,6.2-9,15.6-12.4,22.8c-1.1,2.6-1.7,5-1.7,7.1
		c0,2.9,1,4.8,2.6,4.8c3.7,0,8.6-6,12-13.1c1-2.3,3.2-2.5,3.9,0.1c0.5,2,0.1,3.4-1,5.6c-1.3,2.9-7.7,11-15.7,11
		c-5,0-9.4-4.1-9.4-10.6C406.8,51.5,407.4,48.8,408.7,45.7z"/>
	<path fill="#FAFAF6" d="M451.4,64.3c-6.3,0-9.1-3.1-9.1-8.1c0-6,4.7-14.3,8.3-19.9c1.8-3.1,3.2-5.4,2.6-5.4c-0.9,0-9.9,6-14.9,14.2
		c-3.2,5.3-6.6,11.9-8.9,17.6c-0.8,1.7-2.2,2-3.3,0.6c-1.5-1.8-2.8-4.1-0.5-10.4c3.8-10,22.6-41.8,30.3-51.7
		c1.5-1.9,2.9-1.5,3.8,0.4c0.5,1,0.8,2.3,0.8,3.6c0,2.6-1.1,6.1-3.4,10.1c-1.9,3.1-7.8,12-8.7,13.3c2.8-2.1,6.2-3.2,8-3.2
		c2.8,0,5.5,2.9,5.5,6.7c0,1.3-0.3,2.7-1,4c-5.2,9.3-7.6,13.3-8.6,15.6c-0.9,2.1-1.2,4.1-1.2,5.6c0,2,0.5,3.2,1.8,3.2
		c3.3,0,8.4-6.7,11.2-12.5c0.7-1.4,2.2-1.6,2.9,0c0.5,1.1,1.1,3.3-0.3,6.2C463.7,59.6,457.5,64.3,451.4,64.3z"/>
	<path fill="#FAFAF6" d="M524,43c0.5,1,0.7,2.2,0.7,3.1c0,5.5-5.1,11-8.5,13.6c-3.9,2.8-8.2,3.9-12.3,3.9c-3.1,0-6-0.7-8.4-2
		c-4.5-2.4-8.4-8.4-8.5-16.1c-0.4-19.2,16.6-36.4,27.4-41.2c2.5-1,5.1-1.6,7.5-1.6s4.6,0.7,6.2,2c3.2,2.9,5.7,6.6,5.7,10.3
		c0,1.7-0.4,3.6-1.3,5.5c-1.6,3.2-2.9,6.5-3.6,8.6c-0.5,1.6-1.8,2.6-3.7,1.4c-1.9-1.2-3.2-3.3-3.2-6.1c0-1.1,0.2-2.3,0.6-3.5
		c0.4-1.4,1-2.9,1.6-4.4c1.3-3.3,2.5-6.4,1.3-7.6c-2.3-2.5-15.8,5.8-23.7,18.5c-4.2,6.7-6,14.5-6,20.2c0,8.2,3.6,11.8,7,11.8
		c5.2,0,12-6.1,17.5-16.6C520.9,41.4,523.1,40.9,524,43z"/>
	<path fill="#FAFAF6" d="M559.4,15.9c-2.9,11.3-13.3,22.5-21.7,28.1c-1.9,4.8-3.1,9.1-3.1,12.4c0,2.3,0.6,3.9,1.8,3.9
		c4.4,0,9.9-6.4,13.5-13.2c1.2-2.4,3.3-2.4,4,0.1c0.4,1.4,0.3,3.6-1,6.2c-1.4,2.9-8.5,10.6-16.4,10.6c-5.8,0-9.4-3.3-9.4-9.9
		c0-1.6,0.2-3.5,0.7-5.4c3.7-15.8,14.4-33.3,23.8-43.1c1.8-1.8,3.5-2.4,5.3-0.7c2.1,1.8,3.1,4.5,3.1,6.9
		C560,13.2,559.9,14.3,559.4,15.9z M548.6,23.4c-2.5,4.2-6.7,11.3-7.3,12.9c4.1-4,7.3-8.4,9.5-12.1c3.2-5.4,4.5-9.6,3.9-10
		C554.3,14.1,551.8,17.8,548.6,23.4z"/>
	<path fill="#FAFAF6" d="M574.1,24.9c3.4,0,5.5,1.7,6.4,4.2l1.8-2.9c1.1-1.9,2.8-2,3.9-0.7c1.6,1.9,2.5,6.1,0,11
		c-2.5,5.2-10.5,15.6-10.5,21.9c0,1.4,0.4,2.3,1.3,2.3c3.4,0,8.2-6.5,11.3-12.6c1-1.9,1.9-2,2.8,0c0.4,0.9,1,3.4-0.4,6.2
		c-2.5,5.2-8.5,10.3-14.3,10.3c-4.8,0-7.5-2.5-8.3-6c-2.8,2.7-7,5.6-10.8,5.6c-5.6,0-8.6-4.1-8.6-9.7c0-4.1,1.7-9.4,5.1-14.2
		C561.4,29.4,569.2,24.9,574.1,24.9z M570.8,46.2c3.7-6.5,5.4-11.1,5.4-13.6c0-1.1-0.2-1.8-1.1-1.8c-1.9,0-8.5,6-13.3,13.8
		c-2.8,4.5-4.5,9.5-4.5,12.5c0,1.7,0.4,2.9,1.3,2.9C561.7,60,566.1,54.2,570.8,46.2z"/>
	<path fill="#FAFAF6" d="M589.1,43.3c1.9-1.6,3.3-1.1,3.6,1.1c3.1-4.5,6.5-9.4,8.9-13.5c0.4-3.4,1.5-5.6,3.7-7.4
		c1.5-1.3,3.2-2,4.7-2c2.6,0,3.1,2.1,0.2,6.9c-0.1,1.1-0.2,2.8-0.2,4c0,6.7,1.2,12.9,1,18c-0.1,2.4-0.6,5-1.6,7.1
		c3.9-2.7,6.6-5.8,8.3-10.5c0.9-2.2,2.3-1.5,2.9,0c0.5,0.9,0.8,3.6-1,6.6c-3.6,6.7-10.3,10.3-17.4,10.5c-5.7,0.2-11.4-1.3-14.6-7.3
		c-1-1.8-1.6-4.1-1.6-6.3C586,47.9,587,45.1,589.1,43.3z M601.9,48.9c0-3-0.1-6.1-0.3-8.6c-2.3,3.6-4.9,7.7-7.8,11.8
		c1.1,4.5,3.1,7.8,5.2,7.8C601.1,59.9,601.9,55.1,601.9,48.9z"/>
	<path fill="#FAFAF6" d="M617.8,43.3c1.9-1.6,3.3-1.1,3.6,1.1c3.1-4.5,6.5-9.4,8.9-13.5c0.4-3.4,1.5-5.6,3.7-7.4
		c1.5-1.3,3.2-2,4.7-2c2.6,0,3.1,2.1,0.2,6.9c-0.1,1.1-0.2,2.8-0.2,4c0,6.7,1.2,12.9,1,18c-0.1,2.4-0.6,5-1.6,7.1
		c3.9-2.7,6.6-5.8,8.3-10.5c0.9-2.2,2.3-1.5,2.9,0c0.5,0.9,0.8,3.6-1,6.6c-3.6,6.7-10.3,10.3-17.4,10.5c-5.7,0.2-11.4-1.3-14.6-7.3
		c-1-1.8-1.6-4.1-1.6-6.3C614.7,47.9,615.7,45.1,617.8,43.3z M630.6,48.9c0-3-0.1-6.1-0.3-8.6c-2.3,3.6-4.9,7.7-7.8,11.8
		c1.1,4.5,3.1,7.8,5.2,7.8C629.7,59.9,630.6,55.1,630.6,48.9z"/>
</g>
<path fill="#FAFAF6" d="M647.5,76.8H2.5c-1.4,0-2.5-1.1-2.5-2.5v0c0-1.4,1.1-2.5,2.5-2.5h645c1.4,0,2.5,1.1,2.5,2.5v0
	C650,75.7,648.9,76.8,647.5,76.8z"/>
</svg>
